<svg width="31" height="29" viewBox="0 0 31 29" fill="none" xmlns="http://www.w3.org/2000/svg">
<path d="M29.5561 16.546C29.6911 18.871 28.6261 21.106 26.7211 22.471L27.8761 24.706C28.2211 25.381 28.2661 26.176 27.9661 26.881C27.6811 27.586 27.0961 28.141 26.3761 28.381L25.1911 28.756C24.6976 28.9216 24.1651 28.9312 23.666 28.7836C23.1668 28.636 22.7252 28.3383 22.4011 27.931L19.2211 24.181C17.8861 23.956 16.6261 23.386 15.5611 22.531C14.8111 22.756 14.0611 22.876 13.3111 22.876C11.9911 22.876 10.6711 22.471 9.56112 21.691C8.76612 21.931 7.95612 22.036 7.13112 22.021C5.94612 22.036 4.77612 21.796 3.68112 21.346C2.6266 20.8765 1.72551 20.1196 1.08092 19.162C0.436334 18.2044 0.0742629 17.0847 0.0361209 15.931C-0.0838791 14.851 0.0961209 13.756 0.561121 12.766C0.126121 11.641 0.0811209 10.411 0.456121 9.27102C1.01112 7.84602 2.06112 6.66102 3.36612 5.91102C4.23612 3.37602 6.68112 1.68102 9.36612 1.86102C11.7661 -0.388985 15.4411 -0.628984 18.1111 1.30602C18.7411 1.14102 19.4011 1.05102 20.0611 1.05102C22.1011 1.00602 24.0361 1.90602 25.3111 3.51102C28.3711 4.30602 30.5611 7.03602 30.6811 10.216C30.7561 11.881 30.3061 13.516 29.3911 14.911C29.4961 15.451 29.5561 15.991 29.5561 16.546ZM22.0561 14.431C22.9111 14.536 23.5861 15.181 23.5861 16.036C23.5861 16.4338 23.4281 16.8154 23.1468 17.0967C22.8655 17.378 22.4839 17.536 22.0861 17.536H21.1411C20.6611 18.886 19.8211 20.071 18.7111 20.971C19.0861 21.106 19.4761 21.181 19.8661 21.286C27.5611 21.181 26.6611 16.486 26.6611 16.411C26.6418 15.9007 26.5221 15.3992 26.3087 14.9352C26.0954 14.4712 25.7927 14.0539 25.418 13.707C25.0432 13.3601 24.6037 13.0904 24.1247 12.9135C23.6456 12.7366 23.1364 12.6559 22.6261 12.676C22.2283 12.676 21.8468 12.518 21.5655 12.2367C21.2842 11.9554 21.1261 11.5738 21.1261 11.176C21.1261 10.7782 21.2842 10.3967 21.5655 10.1154C21.8468 9.83405 22.2283 9.67602 22.6261 9.67602C24.4711 9.72101 26.2411 10.411 27.6211 11.626C27.6961 11.191 27.7411 10.741 27.7411 10.291C27.6511 8.43102 26.8111 6.81102 23.4361 6.49602C21.5611 2.05602 16.8361 4.51602 16.8361 5.89602C16.7911 6.24102 17.1511 6.97602 17.2111 7.02102C17.6089 7.02102 17.9905 7.17905 18.2718 7.46036C18.5531 7.74166 18.7111 8.12319 18.7111 8.52102C18.7111 9.34601 18.0361 10.021 17.2111 10.021C16.4161 9.99102 15.6661 9.69102 15.0661 9.18102C14.3461 9.64602 13.5211 9.93102 12.6661 10.021C11.8111 10.096 11.1061 9.49602 11.0611 8.67101C11.0339 8.47514 11.047 8.27578 11.0994 8.0851C11.1518 7.89443 11.2426 7.71645 11.3661 7.56203C11.4897 7.40761 11.6434 7.27999 11.8179 7.18697C11.9924 7.09395 12.1841 7.03749 12.3811 7.02102C12.6211 6.99102 13.7911 6.81102 13.7911 5.86602C13.7911 4.87602 14.1661 3.93102 14.8111 3.18102C13.4311 2.80602 11.9461 3.30102 10.4461 5.11602C7.68612 4.68102 6.56112 5.05602 5.73612 7.98102C4.31112 8.68602 3.56112 9.18102 3.23112 10.681C4.85112 10.351 6.51612 10.486 8.06112 11.056C8.81112 11.341 9.23112 12.181 8.94612 12.991C8.66112 13.771 7.79112 14.161 7.01112 13.876C5.91612 13.396 4.68612 13.366 3.56112 13.786C3.08112 14.191 3.08112 15.031 3.08112 15.691C3.08112 16.801 3.63612 17.836 4.58112 18.436C5.37612 18.841 6.26112 19.051 7.14612 19.036C6.92112 18.646 6.72612 18.241 6.56112 17.821C6.44303 17.4356 6.479 17.0195 6.66146 16.6601C6.84392 16.3006 7.15866 16.026 7.53946 15.8939C7.92027 15.7618 8.33747 15.7825 8.70332 15.9517C9.06917 16.1208 9.35515 16.4253 9.50112 16.801C10.1011 18.511 11.6311 19.681 13.4311 19.876C15.4861 19.771 17.3161 18.556 18.2161 16.681C18.5611 14.611 20.2261 14.431 22.0561 14.431ZM25.0561 25.636L24.1261 23.686L23.0611 23.926L24.5611 25.801L25.0561 25.636ZM18.0811 12.721C18.0942 12.3378 17.96 11.9642 17.7061 11.6769C17.4522 11.3895 17.098 11.2103 16.7161 11.176C15.6511 11.116 14.6161 11.476 13.8211 12.181C12.9661 13.051 12.5161 14.251 12.5611 15.466C12.5611 15.8638 12.7192 16.2454 13.0005 16.5267C13.2818 16.808 13.6633 16.966 14.0611 16.966C14.9161 16.966 15.5611 16.291 15.5611 15.466C15.5611 15.061 15.6661 14.656 15.9061 14.326C16.0861 14.176 16.3111 14.101 16.5511 14.101C17.3761 14.146 18.0811 13.531 18.0811 12.721Z" fill="#0561E8"/>
</svg>
