<svg width="19" height="19" viewBox="0 0 19 19" fill="none" xmlns="http://www.w3.org/2000/svg">
<path d="M2.03697 18.75H1.53234e-05V8.56769C-0.00180766 7.87212 0.15905 7.18577 0.469742 6.56344C0.89163 5.63244 1.57264 4.84259 2.43141 4.28827C3.29018 3.73394 4.29038 3.43859 5.31252 3.4375H10.6468V0H12.3015L18.6964 6.39492L12.2788 12.8125H10.6468V9.375H7.17755C6.45189 9.37677 5.74659 9.6151 5.1686 10.0539C4.59062 10.4927 4.17146 11.1079 3.9747 11.8064L2.03697 18.75ZM5.31252 4.6875C4.52905 4.68835 3.76247 4.91526 3.10476 5.34099C2.44705 5.76672 1.92616 6.37318 1.60459 7.08762L1.59318 7.1116C1.36609 7.5633 1.24853 8.06212 1.25002 8.56769V16.9196L2.77072 11.4704C3.04142 10.5094 3.61813 9.66279 4.41339 9.05907C5.20866 8.45535 6.1791 8.12741 7.17755 8.125H11.8968V11.4268L16.9286 6.39492L11.8968 1.36305V4.6875H5.31252Z" fill="black"/>
</svg>
