<svg width="27" height="29" viewBox="0 0 27 29" fill="none" xmlns="http://www.w3.org/2000/svg">
<path d="M12.6 0.0292533C5.43 0.494253 0 6.77925 0 13.9643V23.9993C0 26.4893 2.01 28.4993 4.5 28.4993H6C7.65 28.4993 9 27.1493 9 25.4993V19.4993C9 17.8493 7.65 16.4993 6 16.4993H3V13.9343C3 8.17425 7.44 3.16425 13.185 2.99925C14.5902 2.95708 15.9895 3.1975 17.3 3.70626C18.6105 4.21502 19.8055 4.98176 20.8141 5.96101C21.8227 6.94025 22.6244 8.11207 23.1717 9.40696C23.719 10.7019 24.0006 12.0935 24 13.4993V16.4993H21C19.35 16.4993 18 17.8493 18 19.4993V25.4993C18 27.1493 19.35 28.4993 21 28.4993H22.5C24.99 28.4993 27 26.4893 27 23.9993V13.4993C27 5.74425 20.46 -0.480747 12.6 0.0292533Z" fill="#0561E8"/>
</svg>
