<svg width="15" height="15" viewBox="0 0 15 15" fill="none" xmlns="http://www.w3.org/2000/svg">
<path d="M7.5 0.1875C9.35542 0.187509 11.0435 0.885328 12.333 2.02539L10.4746 3.88379C9.66575 3.21671 8.63125 2.81251 7.5 2.8125C4.91133 2.8125 2.8125 4.91133 2.8125 7.5C2.81252 10.0886 4.91135 12.1875 7.5 12.1875C9.54086 12.1875 11.2711 10.881 11.915 9.0625L12.0039 8.8125H7.6875V6.1875H14.0625V6.21875H14.6963C14.7702 6.63527 14.8125 7.06297 14.8125 7.5C14.8125 11.5383 11.5383 14.8125 7.5 14.8125C3.46171 14.8125 0.18752 11.5383 0.1875 7.5C0.1875 3.4617 3.4617 0.1875 7.5 0.1875Z" fill="#FFC107" stroke="#0561E8" stroke-width="0.374998"/>
<path d="M0.864746 4.00911L3.32886 5.81622C3.99561 4.16548 5.61035 2.99999 7.49996 2.99999C8.64708 2.99999 9.6907 3.43273 10.4853 4.1396L12.6067 2.01824C11.2672 0.769871 9.47545 0 7.49996 0C4.61923 0 2.12099 1.62637 0.864746 4.00911Z" fill="#FF3D00"/>
<path d="M7.50008 15C9.43732 15 11.1976 14.2586 12.5284 13.053L10.2072 11.0888C9.42904 11.6809 8.47792 12.0011 7.50008 12C5.54934 12 3.89298 10.7561 3.26898 9.02026L0.823242 10.9046C2.06449 13.3335 4.58522 15 7.50008 15Z" fill="#4CAF50"/>
<path d="M14.8541 6.03112H14.25V6H7.5V8.99999H11.7386C11.4428 9.83114 10.91 10.5574 10.206 11.0891L10.2071 11.0883L12.5284 13.0526C12.3641 13.2018 15 11.25 15 7.49999C15 6.99712 14.9482 6.50625 14.8541 6.03112Z" fill="#1976D2"/>
</svg>
