<svg width="25" height="25" viewBox="0 0 25 25" fill="none" xmlns="http://www.w3.org/2000/svg">
<rect width="24.9231" height="24.9231" rx="12.4615" fill="#0561E8"/>
<path d="M15.1548 5.81543C16.1075 5.81543 17.0212 6.19387 17.6949 6.86751C18.3686 7.54115 18.7471 8.45479 18.7471 9.40746V15.1547C18.7471 16.1074 18.3686 17.021 17.6949 17.6947C17.0212 18.3683 16.1075 18.7467 15.1548 18.7467H9.4072C8.45447 18.7467 7.54077 18.3683 6.86709 17.6947C6.19341 17.021 5.81494 16.1074 5.81494 15.1547V9.40746C5.81494 8.45479 6.19341 7.54115 6.86709 6.86751C7.54077 6.19387 8.45447 5.81543 9.4072 5.81543H15.1548ZM12.281 9.40746C11.5188 9.40746 10.7879 9.71022 10.2489 10.2491C9.70997 10.788 9.4072 11.519 9.4072 12.2811C9.4072 13.0432 9.70997 13.7741 10.2489 14.313C10.7879 14.852 11.5188 15.1547 12.281 15.1547C13.0432 15.1547 13.7741 14.852 14.3131 14.313C14.852 13.7741 15.1548 13.0432 15.1548 12.2811C15.1548 11.519 14.852 10.788 14.3131 10.2491C13.7741 9.71022 13.0432 9.40746 12.281 9.40746ZM12.281 10.8443C12.6621 10.8443 13.0276 10.9957 13.297 11.2651C13.5665 11.5346 13.7179 11.9 13.7179 12.2811C13.7179 12.6622 13.5665 13.0276 13.297 13.2971C13.0276 13.5665 12.6621 13.7179 12.281 13.7179C11.8999 13.7179 11.5344 13.5665 11.265 13.2971C10.9955 13.0276 10.8441 12.6622 10.8441 12.2811C10.8441 11.9 10.9955 11.5346 11.265 11.2651C11.5344 10.9957 11.8999 10.8443 12.281 10.8443ZM15.514 8.32985C15.3235 8.32985 15.1407 8.40554 15.006 8.54027C14.8713 8.67499 14.7956 8.85772 14.7956 9.04826C14.7956 9.23879 14.8713 9.42152 15.006 9.55625C15.1407 9.69097 15.3235 9.76666 15.514 9.76666C15.7046 9.76666 15.8873 9.69097 16.0221 9.55625C16.1568 9.42152 16.2325 9.23879 16.2325 9.04826C16.2325 8.85772 16.1568 8.67499 16.0221 8.54027C15.8873 8.40554 15.7046 8.32985 15.514 8.32985Z" fill="white"/>
</svg>
