<svg width="75" height="62" viewBox="0 0 75 62" fill="none" xmlns="http://www.w3.org/2000/svg">
<path d="M19.218 20.4543L15.3457 20.8601C12.9255 10.0118 8.5755 13.5079 5.96306 14.233L3.27491 10.7045C11.8547 6.86573 16.4995 7.52949 19.218 20.4543Z" fill="#FDC300"/>
<path d="M15.698 19.4169C12.9268 9.61034 7.7657 13.5357 5.98735 14.2698L3.32637 10.8403C8.37511 8.27166 16.4746 8.13769 19.4868 18.5132L15.698 19.4169Z" fill="#B38513"/>
<path d="M15.9291 17.7427C12.9933 9.67719 7.58366 13.2832 5.88915 14.3074L3.3453 10.6869C9.05405 7.51886 15.4031 7.40127 19.4594 15.7912L15.9291 17.7427Z" fill="#63C0F2"/>
<path d="M15.7012 15.4644C11.6545 10.8153 7.40244 13.0163 6.00853 14.2533L3.24603 11.0078C8.66526 8.59895 10.7175 6.46412 18.4824 12.9572L15.7012 15.4644Z" fill="#009DDD"/>
<path d="M14.4002 13.3589C9.44673 11.3508 7.12148 13.1525 5.95006 14.2804L3.5013 10.8831C7.76562 8.22792 12.9945 7.73601 16.8098 10.8832L14.4002 13.3589Z" fill="#E6027D"/>
<path d="M12.5918 12.154C7.97305 12.154 7.30366 13.0243 6.21938 14.3224L3.2769 11.2174C5.97959 8.76168 11.3348 7.79194 14.5332 9.07492L12.5918 12.154Z" fill="#961C81"/>
<path d="M12.2568 8.27174L11.0519 11.6856C7.50423 12.4889 6.61227 13.5445 5.79319 14.2372L3.41204 11.0404C5.59091 9.35953 6.4331 7.87011 12.2568 8.27174Z" fill="#8659FB"/>
<path d="M10.1816 8.20464L10.1817 11.6855L7.97296 12.6226L6.11034 13.6418L4.11849 10.1386L5.22135 9.41116C5.49316 9.23187 5.77965 9.0818 6.07739 8.96272C7.33257 8.46074 8.66203 8.20464 10.0127 8.20464L10.1816 8.20464Z" fill="#5F3EB5"/>
<path d="M8.13086 12.6516C6.80952 13.0755 5.89661 14.3083 5.89648 15.7161V25.2942H16.627V29.4329H5.89648V37.9407H1.54883L1.33203 15.7473C1.30301 12.7799 3.09984 10.1393 5.78906 9.04321L8.13086 12.6516Z" fill="#0561E8"/>
<path d="M29.5223 38.9516C27.5826 38.9516 25.9118 38.5894 24.5096 37.865C23.1075 37.1405 22.0208 36.1123 21.2496 34.7802C20.5018 33.4482 20.1279 31.8708 20.1279 30.048C20.1279 28.272 20.4902 26.7179 21.2146 25.3859C21.9624 24.0539 22.9789 23.014 24.2642 22.2661C25.5729 21.495 27.0568 21.1094 28.716 21.1094C30.3519 21.1094 31.754 21.4599 32.9225 22.161C34.0909 22.8621 34.9906 23.8552 35.6216 25.1405C36.2759 26.4258 36.6031 27.9565 36.6031 29.7325V31.0295H23.6683V28.5057H33.5184L32.9575 29.0315C32.9575 27.4424 32.607 26.2272 31.9059 25.3859C31.2048 24.5213 30.2 24.0889 28.8913 24.0889C27.9098 24.0889 27.0685 24.3226 26.3675 24.79C25.6898 25.234 25.1639 25.8767 24.79 26.7179C24.4395 27.5359 24.2642 28.5174 24.2642 29.6624V29.9078C24.2642 31.1931 24.4629 32.2564 24.8602 33.0977C25.2574 33.939 25.8533 34.5699 26.6479 34.9906C27.4424 35.4112 28.4239 35.6215 29.5924 35.6215C30.5505 35.6215 31.5086 35.4813 32.4668 35.2009C33.4249 34.8971 34.3012 34.4297 35.0958 33.7987L36.3226 36.7432C35.5047 37.4209 34.4765 37.9584 33.2379 38.3557C31.9994 38.753 30.7608 38.9516 29.5223 38.9516ZM40.6233 30.9594V27.4541H51.0692V30.9594H40.6233ZM57.2594 38.6011V34.8854H62.8329V17.6741H65.0063L58.5214 21.6001L56.7687 18.3051L64.1299 13.8884H67.3198V34.8854H72.5428V38.6011H57.2594Z" fill="#0561E8"/>
<path d="M3.89892 49.0022C3.83893 48.8582 3.75795 48.6752 3.65597 48.4533C3.55999 48.2313 3.45501 47.9914 3.34104 47.7334C3.22706 47.4755 3.10409 47.2115 2.97212 46.9416C2.84614 46.6657 2.72617 46.4077 2.6122 46.1678C2.49822 45.9218 2.39024 45.7029 2.28827 45.5109C2.19229 45.319 2.1143 45.172 2.05432 45.07C1.98833 45.7779 1.93434 46.5457 1.89235 47.3735C1.85036 48.1953 1.81437 49.0261 1.78437 49.866H0.92956C0.953555 49.3261 0.980549 48.7832 1.01054 48.2373C1.04054 47.6854 1.07353 47.1456 1.10952 46.6177C1.15151 46.0838 1.1935 45.5649 1.23549 45.061C1.28348 44.5571 1.33447 44.0802 1.38846 43.6303H2.15329C2.31526 43.8943 2.48922 44.2062 2.67518 44.5661C2.86114 44.926 3.0471 45.304 3.23306 45.6999C3.41902 46.0898 3.59898 46.4827 3.77294 46.8786C3.94691 47.2685 4.10587 47.6255 4.24984 47.9494C4.39381 47.6255 4.55277 47.2685 4.72674 46.8786C4.9007 46.4827 5.08066 46.0898 5.26662 45.6999C5.45258 45.304 5.63854 44.926 5.8245 44.5661C6.01046 44.2062 6.18442 43.8943 6.34639 43.6303H7.11122C7.31518 45.6399 7.46814 47.7184 7.57012 49.866H6.71531C6.68531 49.0261 6.64932 48.1953 6.60733 47.3735C6.56534 46.5457 6.51135 45.7779 6.44536 45.07C6.38538 45.172 6.30439 45.319 6.20242 45.5109C6.10644 45.7029 6.00146 45.9218 5.88749 46.1678C5.77351 46.4077 5.65054 46.6657 5.51857 46.9416C5.39259 47.2115 5.27262 47.4755 5.15864 47.7334C5.04467 47.9914 4.93669 48.2313 4.83471 48.4533C4.73873 48.6752 4.66075 48.8582 4.60076 49.0022H3.89892ZM12.6279 49.2631C12.8258 49.2631 12.9998 49.2601 13.1498 49.2541C13.3057 49.2421 13.4347 49.2241 13.5367 49.2001V47.8054C13.4767 47.7754 13.3777 47.7514 13.2397 47.7334C13.1078 47.7094 12.9458 47.6974 12.7538 47.6974C12.6279 47.6974 12.4929 47.7064 12.3489 47.7244C12.211 47.7424 12.082 47.7814 11.962 47.8414C11.848 47.8954 11.7521 47.9734 11.6741 48.0754C11.5961 48.1713 11.5571 48.3003 11.5571 48.4623C11.5571 48.7622 11.6531 48.9722 11.845 49.0921C12.037 49.2061 12.2979 49.2631 12.6279 49.2631ZM12.5559 45.07C12.8918 45.07 13.1737 45.115 13.4017 45.205C13.6356 45.289 13.8216 45.4119 13.9596 45.5739C14.1035 45.7299 14.2055 45.9188 14.2655 46.1408C14.3255 46.3567 14.3555 46.5967 14.3555 46.8606V49.785C14.2835 49.797 14.1815 49.815 14.0496 49.839C13.9236 49.857 13.7796 49.875 13.6177 49.893C13.4557 49.911 13.2787 49.926 13.0868 49.938C12.9008 49.9559 12.7148 49.9649 12.5289 49.9649C12.2649 49.9649 12.022 49.938 11.8 49.884C11.5781 49.83 11.3861 49.746 11.2242 49.632C11.0622 49.512 10.9362 49.3561 10.8463 49.1641C10.7563 48.9722 10.7113 48.7412 10.7113 48.4713C10.7113 48.2133 10.7623 47.9914 10.8642 47.8054C10.9722 47.6195 11.1162 47.4695 11.2962 47.3555C11.4761 47.2415 11.6861 47.1576 11.926 47.1036C12.166 47.0496 12.4179 47.0226 12.6819 47.0226C12.7658 47.0226 12.8528 47.0286 12.9428 47.0406C13.0328 47.0466 13.1168 47.0586 13.1947 47.0766C13.2787 47.0886 13.3507 47.1006 13.4107 47.1126C13.4707 47.1246 13.5127 47.1336 13.5367 47.1396V46.9056C13.5367 46.7676 13.5217 46.6327 13.4917 46.5007C13.4617 46.3627 13.4077 46.2428 13.3297 46.1408C13.2517 46.0328 13.1438 45.9488 13.0058 45.8888C12.8738 45.8228 12.6999 45.7899 12.4839 45.7899C12.208 45.7899 11.965 45.8108 11.7551 45.8528C11.5511 45.8888 11.3981 45.9278 11.2962 45.9698L11.1972 45.277C11.3052 45.229 11.4851 45.184 11.7371 45.142C11.989 45.094 12.2619 45.07 12.5559 45.07ZM20.9282 46.1768C20.8262 46.0928 20.6793 46.0118 20.4873 45.9338C20.2954 45.8558 20.0854 45.8168 19.8574 45.8168C19.6175 45.8168 19.4105 45.8618 19.2366 45.9518C19.0686 46.0358 18.9306 46.1558 18.8227 46.3117C18.7147 46.4617 18.6367 46.6417 18.5887 46.8516C18.5407 47.0616 18.5167 47.2865 18.5167 47.5265C18.5167 48.0724 18.6517 48.4953 18.9216 48.7952C19.1916 49.0891 19.5515 49.2361 20.0014 49.2361C20.2294 49.2361 20.4183 49.2271 20.5683 49.2091C20.7243 49.1851 20.8442 49.1611 20.9282 49.1371V46.1768ZM20.9282 43.0274L21.765 42.8835V49.731C21.5731 49.785 21.3271 49.839 21.0272 49.893C20.7273 49.9469 20.3823 49.9739 19.9924 49.9739C19.6325 49.9739 19.3086 49.917 19.0206 49.803C18.7327 49.689 18.4867 49.527 18.2828 49.3171C18.0788 49.1071 17.9199 48.8522 17.8059 48.5523C17.6979 48.2463 17.6439 47.9044 17.6439 47.5265C17.6439 47.1666 17.6889 46.8366 17.7789 46.5367C17.8749 46.2368 18.0128 45.9788 18.1928 45.7629C18.3728 45.5469 18.5917 45.3789 18.8497 45.259C19.1136 45.139 19.4135 45.079 19.7495 45.079C20.0194 45.079 20.2564 45.115 20.4603 45.187C20.6703 45.259 20.8262 45.328 20.9282 45.3939V43.0274ZM25.1021 47.5355C25.1021 47.1216 25.1621 46.7616 25.2821 46.4557C25.402 46.1438 25.561 45.8858 25.759 45.6819C25.9569 45.4779 26.1849 45.325 26.4428 45.223C26.7008 45.121 26.9647 45.07 27.2347 45.07C27.8645 45.07 28.3474 45.268 28.6833 45.6639C29.0193 46.0538 29.1872 46.6507 29.1872 47.4545C29.1872 47.4905 29.1872 47.5385 29.1872 47.5985C29.1872 47.6524 29.1842 47.7034 29.1782 47.7514H25.9749C26.0109 48.2373 26.1519 48.6062 26.3978 48.8582C26.6438 49.1101 27.0277 49.2361 27.5496 49.2361C27.8435 49.2361 28.0895 49.2121 28.2874 49.1641C28.4914 49.1101 28.6443 49.0591 28.7463 49.0112L28.8633 49.713C28.7613 49.767 28.5814 49.824 28.3234 49.884C28.0715 49.9439 27.7835 49.9739 27.4596 49.9739C27.0517 49.9739 26.6978 49.914 26.3978 49.794C26.1039 49.668 25.8609 49.497 25.669 49.2811C25.477 49.0651 25.3331 48.8102 25.2371 48.5163C25.1471 48.2163 25.1021 47.8894 25.1021 47.5355ZM28.3144 47.0766C28.3204 46.6987 28.2244 46.3897 28.0265 46.1498C27.8345 45.9038 27.5676 45.7809 27.2257 45.7809C27.0337 45.7809 26.8627 45.8198 26.7128 45.8978C26.5688 45.9698 26.4458 46.0658 26.3438 46.1858C26.2419 46.3057 26.1609 46.4437 26.1009 46.5997C26.0469 46.7556 26.0109 46.9146 25.9929 47.0766H28.3144ZM38.2936 49.2451C39.2054 49.2451 39.6613 48.9332 39.6613 48.3093C39.6613 48.1173 39.6193 47.9554 39.5353 47.8234C39.4574 47.6854 39.3494 47.5685 39.2114 47.4725C39.0734 47.3705 38.9145 47.2835 38.7345 47.2115C38.5605 47.1396 38.3746 47.0676 38.1766 46.9956C37.9487 46.9176 37.7327 46.8306 37.5288 46.7346C37.3248 46.6327 37.1479 46.5157 36.9979 46.3837C36.8479 46.2458 36.7279 46.0838 36.638 45.8978C36.554 45.7119 36.512 45.4869 36.512 45.223C36.512 44.6771 36.698 44.2512 37.0699 43.9453C37.4418 43.6393 37.9547 43.4863 38.6085 43.4863C38.9865 43.4863 39.3284 43.5283 39.6343 43.6123C39.9462 43.6903 40.1742 43.7773 40.3182 43.8733L40.0392 44.5841C39.9133 44.5061 39.7243 44.4311 39.4723 44.3592C39.2264 44.2812 38.9385 44.2422 38.6085 44.2422C38.4406 44.2422 38.2846 44.2602 38.1406 44.2962C37.9967 44.3322 37.8707 44.3862 37.7627 44.4581C37.6547 44.5301 37.5678 44.6231 37.5018 44.7371C37.4418 44.8451 37.4118 44.974 37.4118 45.124C37.4118 45.292 37.4448 45.4329 37.5108 45.5469C37.5768 45.6609 37.6697 45.7629 37.7897 45.8528C37.9097 45.9368 38.0477 46.0148 38.2036 46.0868C38.3656 46.1588 38.5426 46.2308 38.7345 46.3027C39.0045 46.4107 39.2504 46.5187 39.4723 46.6267C39.7003 46.7346 39.8953 46.8636 40.0572 47.0136C40.2252 47.1636 40.3542 47.3435 40.4441 47.5535C40.5341 47.7574 40.5791 48.0064 40.5791 48.3003C40.5791 48.8462 40.3782 49.2661 39.9762 49.56C39.5803 49.854 39.0194 50.0009 38.2936 50.0009C38.0477 50.0009 37.8197 49.9829 37.6098 49.9469C37.4058 49.917 37.2228 49.881 37.0609 49.839C36.8989 49.791 36.7579 49.743 36.638 49.695C36.524 49.641 36.434 49.596 36.368 49.56L36.629 48.8402C36.7669 48.9182 36.9769 49.0052 37.2588 49.1011C37.5408 49.1971 37.8857 49.2451 38.2936 49.2451ZM44.5763 49.866H43.7395V45.187H44.5763V49.866ZM44.1534 44.3412C44.0034 44.3412 43.8744 44.2932 43.7665 44.1972C43.6645 44.0952 43.6135 43.9602 43.6135 43.7923C43.6135 43.6243 43.6645 43.4923 43.7665 43.3964C43.8744 43.2944 44.0034 43.2434 44.1534 43.2434C44.3033 43.2434 44.4293 43.2944 44.5313 43.3964C44.6393 43.4923 44.6933 43.6243 44.6933 43.7923C44.6933 43.9602 44.6393 44.0952 44.5313 44.1972C44.4293 44.2932 44.3033 44.3412 44.1534 44.3412ZM48.1749 45.322C48.3668 45.274 48.6188 45.223 48.9307 45.169C49.2486 45.115 49.6146 45.088 50.0285 45.088C50.3284 45.088 50.5803 45.13 50.7843 45.214C50.9883 45.292 51.1592 45.4089 51.2972 45.5649C51.3392 45.5349 51.4052 45.4929 51.4951 45.4389C51.5851 45.3849 51.6961 45.3339 51.8281 45.286C51.96 45.232 52.107 45.187 52.269 45.151C52.4309 45.109 52.6049 45.088 52.7909 45.088C53.1508 45.088 53.4447 45.142 53.6727 45.25C53.9006 45.3519 54.0776 45.4989 54.2036 45.6909C54.3355 45.8828 54.4225 46.1108 54.4645 46.3747C54.5125 46.6387 54.5365 46.9266 54.5365 47.2385V49.866H53.6997V47.4185C53.6997 47.1426 53.6847 46.9056 53.6547 46.7077C53.6307 46.5097 53.5797 46.3447 53.5017 46.2128C53.4297 46.0808 53.3278 45.9848 53.1958 45.9248C53.0698 45.8588 52.9048 45.8258 52.7009 45.8258C52.4189 45.8258 52.185 45.8648 51.999 45.9428C51.8191 46.0148 51.6961 46.0808 51.6301 46.1408C51.6781 46.2967 51.7141 46.4677 51.7381 46.6537C51.7621 46.8396 51.7741 47.0346 51.7741 47.2385V49.866H50.9373V47.4185C50.9373 47.1426 50.9223 46.9056 50.8923 46.7077C50.8623 46.5097 50.8083 46.3447 50.7303 46.2128C50.6583 46.0808 50.5564 45.9848 50.4244 45.9248C50.2984 45.8588 50.1364 45.8258 49.9385 45.8258C49.8545 45.8258 49.7645 45.8288 49.6685 45.8348C49.5726 45.8408 49.4796 45.8498 49.3896 45.8618C49.3056 45.8678 49.2276 45.8768 49.1557 45.8888C49.0837 45.9008 49.0357 45.9098 49.0117 45.9158V49.866H48.1749V45.322ZM61.333 47.5355C61.333 46.9896 61.198 46.5697 60.9281 46.2757C60.6581 45.9818 60.2982 45.8348 59.8483 45.8348C59.5963 45.8348 59.3984 45.8438 59.2544 45.8618C59.1165 45.8798 59.0055 45.9008 58.9215 45.9248V48.8762C59.0235 48.9602 59.1704 49.0411 59.3624 49.1191C59.5544 49.1971 59.7643 49.2361 59.9923 49.2361C60.2322 49.2361 60.4362 49.1941 60.6041 49.1101C60.7781 49.0202 60.9191 48.9002 61.027 48.7502C61.135 48.5942 61.213 48.4143 61.261 48.2103C61.309 48.0004 61.333 47.7754 61.333 47.5355ZM62.2058 47.5355C62.2058 47.8894 62.1578 48.2163 62.0618 48.5163C61.9718 48.8162 61.8369 49.0741 61.6569 49.2901C61.4769 49.506 61.255 49.674 60.991 49.794C60.7331 49.914 60.4362 49.9739 60.1002 49.9739C59.8303 49.9739 59.5903 49.938 59.3804 49.866C59.1764 49.794 59.0235 49.725 58.9215 49.659V51.5306H58.0847V45.331C58.2826 45.283 58.5286 45.232 58.8225 45.178C59.1224 45.118 59.4674 45.088 59.8573 45.088C60.2172 45.088 60.5411 45.145 60.8291 45.259C61.117 45.3729 61.363 45.5349 61.5669 45.7449C61.7709 45.9548 61.9268 46.2128 62.0348 46.5187C62.1488 46.8186 62.2058 47.1576 62.2058 47.5355ZM66.9466 49.9559C66.4307 49.9439 66.0647 49.833 65.8488 49.623C65.6328 49.4131 65.5249 49.0861 65.5249 48.6422V43.0274L66.3617 42.8835V48.5073C66.3617 48.6452 66.3737 48.7592 66.3977 48.8492C66.4217 48.9392 66.4607 49.0112 66.5146 49.0651C66.5686 49.1191 66.6406 49.1611 66.7306 49.1911C66.8206 49.2151 66.9316 49.2361 67.0635 49.2541L66.9466 49.9559ZM69.9018 47.5355C69.9018 47.1216 69.9618 46.7616 70.0818 46.4557C70.2018 46.1438 70.3607 45.8858 70.5587 45.6819C70.7567 45.4779 70.9846 45.325 71.2426 45.223C71.5005 45.121 71.7644 45.07 72.0344 45.07C72.6642 45.07 73.1471 45.268 73.4831 45.6639C73.819 46.0538 73.987 46.6507 73.987 47.4545C73.987 47.4905 73.987 47.5385 73.987 47.5985C73.987 47.6524 73.984 47.7034 73.978 47.7514H70.7747C70.8107 48.2373 70.9516 48.6062 71.1976 48.8582C71.4435 49.1101 71.8274 49.2361 72.3493 49.2361C72.6433 49.2361 72.8892 49.2121 73.0872 49.1641C73.2911 49.1101 73.4441 49.0591 73.5461 49.0112L73.663 49.713C73.5611 49.767 73.3811 49.824 73.1231 49.884C72.8712 49.9439 72.5833 49.9739 72.2593 49.9739C71.8514 49.9739 71.4975 49.914 71.1976 49.794C70.9036 49.668 70.6607 49.497 70.4687 49.2811C70.2768 49.0651 70.1328 48.8102 70.0368 48.5163C69.9468 48.2163 69.9018 47.8894 69.9018 47.5355ZM73.1142 47.0766C73.1202 46.6987 73.0242 46.3897 72.8262 46.1498C72.6343 45.9038 72.3673 45.7809 72.0254 45.7809C71.8334 45.7809 71.6625 45.8198 71.5125 45.8978C71.3685 45.9698 71.2456 46.0658 71.1436 46.1858C71.0416 46.3057 70.9606 46.4437 70.9006 46.5997C70.8466 46.7556 70.8107 46.9146 70.7927 47.0766H73.1142Z" fill="black"/>
</svg>
