<svg width="30" height="25" viewBox="0 0 30 25" fill="none" xmlns="http://www.w3.org/2000/svg">
<path fill-rule="evenodd" clip-rule="evenodd" d="M10.5653 0.218795C4.29031 4.2488 0.804196 8.93963 0.106974 14.2913C-0.978859 22.6221 6.47114 26.6996 10.2461 23.0363C14.0211 19.373 11.7586 14.7221 9.02531 13.4505C6.29197 12.1788 4.62031 12.6221 4.91197 10.923C5.20364 9.2238 9.09197 4.51463 12.5086 2.3213C12.6295 2.21823 12.7067 2.07298 12.7243 1.91509C12.742 1.7572 12.6988 1.59851 12.6036 1.4713L11.7586 0.372129C11.392 -0.104538 11.0403 -0.0862049 10.5653 0.217962M27.087 0.218795C20.812 4.2488 17.3259 8.93963 16.6286 14.2913C15.542 22.6221 22.992 26.6996 26.767 23.0363C30.542 19.373 28.2795 14.7221 25.5453 13.4505C22.8111 12.1788 21.1403 12.6221 21.432 10.923C21.7236 9.2238 25.6128 4.51463 29.0295 2.3213C29.1502 2.21811 29.2272 2.07281 29.2447 1.91492C29.2622 1.75704 29.2189 1.59841 29.1236 1.4713L28.2795 0.372129C27.9128 -0.104538 27.5611 -0.0862049 27.087 0.217962" fill="#0561E8"/>
</svg>
