<svg width="25" height="25" viewBox="0 0 25 25" fill="none" xmlns="http://www.w3.org/2000/svg">
<rect width="24.9231" height="24.9231" rx="12.4615" fill="#0561E8"/>
<path d="M11.0178 14.6263L14.7635 12.4612L11.0178 10.296V14.6263ZM19.3608 8.97529C19.4546 9.3145 19.5196 9.76917 19.5629 10.3465C19.6134 10.9239 19.6351 11.4219 19.6351 11.8549L19.6784 12.4612C19.6784 14.0417 19.5629 15.2037 19.3608 15.947C19.1804 16.5966 18.7618 17.0151 18.1122 17.1956C17.773 17.2894 17.1524 17.3544 16.1997 17.3977C15.2615 17.4482 14.4026 17.4698 13.6088 17.4698L12.4612 17.5131C9.43728 17.5131 7.55361 17.3977 6.81025 17.1956C6.16071 17.0151 5.74212 16.5966 5.56169 15.947C5.46787 15.6078 5.40292 15.1531 5.35961 14.5758C5.30909 13.9984 5.28744 13.5004 5.28744 13.0674L5.24414 12.4612C5.24414 10.8806 5.35961 9.71865 5.56169 8.97529C5.74212 8.32575 6.16071 7.90716 6.81025 7.72673C7.14946 7.63291 7.77013 7.56796 8.72279 7.52465C9.66101 7.47413 10.5198 7.45248 11.3137 7.45248L12.4612 7.40918C15.4852 7.40918 17.3689 7.52465 18.1122 7.72673C18.7618 7.90716 19.1804 8.32575 19.3608 8.97529Z" fill="white"/>
</svg>
