<svg width="1194" height="345" viewBox="0 0 1194 345" fill="none" xmlns="http://www.w3.org/2000/svg">
<g clip-path="url(#clip0_1628_6993)">
<rect width="1194" height="345" rx="12" fill="url(#paint0_radial_1628_6993)"/>
<g opacity="0.07">
<path d="M910.23 402.016C968.502 422.544 987.877 380.659 990.28 357.15L990.527 183.366L961.198 183.325L961.11 245.682L890.011 245.581L889.965 278.294L961.063 278.395L960.956 354.16C960.953 356.102 960.544 358.039 959.626 359.751C944.538 387.907 920.632 369.956 910.294 357.037C904.09 345.105 897.301 327.373 897.02 317.15L868.58 317.109C869.221 366.179 896.614 394.159 910.23 402.016Z" stroke="#B6BECA" stroke-width="7.95156"/>
<path d="M855.366 235.654C797.094 215.126 777.719 257.011 775.316 280.52L775.069 454.304L804.397 454.345L804.486 391.988L875.585 392.088L875.631 359.376L804.532 359.275L804.64 283.51C804.642 281.568 805.052 279.63 805.969 277.919C821.057 249.763 844.964 267.714 855.302 280.633C861.506 292.564 868.294 310.297 868.576 320.52L897.016 320.561C896.374 271.491 868.982 243.511 855.366 235.654Z" stroke="#B6BECA" stroke-width="7.95156"/>
<path d="M1129.75 402.326C1188.02 422.854 1207.4 380.969 1209.8 357.461L1210.05 183.677L1180.72 183.635L1180.63 245.993L1109.53 245.892L1109.48 278.604L1180.58 278.705L1180.48 354.471C1180.47 356.412 1180.06 358.35 1179.15 360.062C1164.06 388.217 1140.15 370.266 1129.81 357.347C1123.61 345.416 1116.82 327.683 1116.54 317.46L1088.1 317.42C1088.74 366.489 1116.13 394.47 1129.75 402.326Z" stroke="#B6BECA" stroke-width="7.95156"/>
<path d="M1074.89 235.965C1016.61 215.437 997.239 257.322 994.836 280.831L994.589 454.615L1023.92 454.656L1024.01 392.299L1095.1 392.399L1095.15 359.687L1024.05 359.586L1024.16 283.821C1024.16 281.879 1024.57 279.941 1025.49 278.23C1040.58 250.074 1064.48 268.025 1074.82 280.944C1081.03 292.875 1087.81 310.608 1088.1 320.831L1116.54 320.872C1115.89 271.802 1088.5 243.822 1074.89 235.965Z" stroke="#B6BECA" stroke-width="7.95156"/>
<path d="M690.713 401.705C748.985 422.233 768.36 380.348 770.763 356.839L771.009 183.055L741.681 183.014L741.593 245.371L670.494 245.27L670.448 277.983L741.546 278.084L741.439 353.849C741.436 355.791 741.027 357.728 740.109 359.44C725.021 387.596 701.115 369.645 690.777 356.726C684.573 344.794 677.784 327.062 677.502 316.839L649.063 316.798C649.704 365.868 677.097 393.848 690.713 401.705Z" stroke="#B6BECA" stroke-width="7.95156"/>
<path d="M635.849 235.343C577.577 214.816 558.202 256.701 555.799 280.209L555.553 453.993L584.881 454.035L584.969 391.677L656.068 391.778L656.114 359.066L585.016 358.965L585.123 283.199C585.126 281.257 585.535 279.32 586.453 277.608C601.541 249.452 625.447 267.403 635.785 280.323C641.989 292.254 648.778 309.987 649.06 320.21L677.499 320.25C676.858 271.181 649.465 243.2 635.849 235.343Z" stroke="#B6BECA" stroke-width="7.95156"/>
<path d="M471.196 401.393C529.468 421.921 548.843 380.036 551.246 356.527L551.492 182.743L522.164 182.702L522.076 245.059L450.977 244.958L450.931 277.671L522.029 277.772L521.922 353.537C521.919 355.479 521.509 357.416 520.592 359.128C505.504 387.284 481.598 369.333 471.26 356.414C465.056 344.482 458.267 326.75 457.985 316.527L429.546 316.486C430.187 365.556 457.58 393.536 471.196 401.393Z" stroke="#B6BECA" stroke-width="7.95156"/>
<path d="M416.332 235.031C358.06 214.503 338.685 256.388 336.282 279.897L336.035 453.681L365.364 453.722L365.452 391.365L436.551 391.465L436.597 358.753L365.499 358.652L365.606 282.887C365.609 280.945 366.018 279.007 366.936 277.296C382.024 249.14 405.93 267.091 416.268 280.01C422.472 291.941 429.261 309.674 429.542 319.897L457.982 319.938C457.341 270.868 429.948 242.888 416.332 235.031Z" stroke="#B6BECA" stroke-width="7.95156"/>
<path d="M251.679 401.082C309.951 421.61 329.325 379.725 331.729 356.216L331.975 182.433L302.647 182.391L302.559 244.749L231.46 244.648L231.414 277.36L302.512 277.461L302.405 353.226C302.402 355.168 301.992 357.106 301.075 358.817C285.987 386.973 262.08 369.022 251.743 356.103C245.539 344.172 238.75 326.439 238.468 316.216L210.029 316.176C210.67 365.245 238.063 393.226 251.679 401.082Z" stroke="#B6BECA" stroke-width="7.95156"/>
<path d="M196.814 234.721C138.542 214.193 119.168 256.078 116.764 279.587L116.518 453.371L145.846 453.412L145.935 391.054L217.033 391.155L217.08 358.443L145.981 358.342L146.088 282.577C146.091 280.635 146.501 278.697 147.418 276.986C162.506 248.83 186.413 266.781 196.75 279.7C202.955 291.631 209.743 309.364 210.025 319.587L238.464 319.628C237.823 270.558 210.43 242.578 196.814 234.721Z" stroke="#B6BECA" stroke-width="7.95156"/>
<path d="M32.1623 400.77C90.4343 421.298 109.809 379.413 112.212 355.904L112.459 182.121L83.1305 182.079L83.042 244.437L11.9433 244.336L11.8969 277.048L82.9956 277.149L82.8881 352.914C82.8854 354.856 82.4758 356.794 81.5585 358.505C66.4704 386.661 42.5639 368.71 32.2261 355.791C26.0219 343.86 19.2334 326.127 18.9517 315.904L-9.4878 315.864C-8.84643 364.933 18.5462 392.914 32.1623 400.77Z" stroke="#B6BECA" stroke-width="7.95156"/>
<path d="M-22.7033 234.408C-80.9753 213.881 -100.35 255.766 -102.753 279.274L-103 453.058L-73.6715 453.1L-73.583 390.742L-2.48434 390.843L-2.43793 358.131L-73.5366 358.03L-73.4292 282.264C-73.4264 280.322 -73.0168 278.385 -72.0996 276.673C-57.0114 248.517 -33.1049 266.468 -22.7671 279.388C-16.5629 291.319 -9.77444 309.052 -9.49269 319.275L18.9468 319.315C18.3054 270.246 -9.0872 242.265 -22.7033 234.408Z" stroke="#B6BECA" stroke-width="7.95156"/>
<path d="M949.65 178.068C1007.92 199.093 1027.3 156.187 1029.7 132.106L1029.95 -45.9118L1000.63 -45.9534L1000.53 17.9235L929.436 17.8226L929.389 51.3318L1000.49 51.4327L1000.38 129.18C1000.37 131.08 999.979 132.981 999.102 134.667C984.016 163.658 960.065 145.242 949.715 131.992C943.511 119.771 936.723 101.606 936.442 91.134L908.003 91.0937C908.642 141.359 936.034 170.02 949.65 178.068Z" stroke="#B6BECA" stroke-width="7.95156"/>
<path d="M894.789 7.65465C836.517 -13.3713 817.141 29.535 814.737 53.6163L814.485 231.634L843.813 231.676L843.904 167.799L915.002 167.9L915.05 134.39L843.951 134.29L844.061 56.5426C844.064 54.6418 844.459 52.7413 845.337 51.0551C860.423 22.0643 884.374 40.4802 894.723 53.7298C900.927 65.9513 907.715 84.116 907.996 94.5881L936.436 94.6285C935.796 44.3637 908.405 15.7023 894.789 7.65465Z" stroke="#B6BECA" stroke-width="7.95156"/>
<path d="M1169.17 178.378C1227.44 199.404 1246.82 156.498 1249.22 132.416L1249.47 -45.6013L1220.15 -45.6429L1220.05 18.234L1148.96 18.1331L1148.91 51.6423L1220.01 51.7432L1219.9 129.49C1219.89 131.391 1219.5 133.291 1218.62 134.978C1203.54 163.968 1179.58 145.553 1169.23 132.303C1163.03 120.081 1156.24 101.917 1155.96 91.4446L1127.52 91.4042C1128.16 141.669 1155.55 170.33 1169.17 178.378Z" stroke="#B6BECA" stroke-width="7.95156"/>
<path d="M1114.31 7.96568C1056.04 -13.0603 1036.66 29.846 1034.26 53.9274L1034 231.945L1063.33 231.987L1063.42 168.11L1134.52 168.211L1134.57 134.701L1063.47 134.601L1063.58 56.8537C1063.58 54.9528 1063.98 53.0524 1064.86 51.3661C1079.94 22.3754 1103.89 40.7912 1114.24 54.0408C1120.45 66.2624 1127.23 84.4271 1127.52 94.8992L1155.96 94.9395C1155.32 44.6747 1127.92 16.0133 1114.31 7.96568Z" stroke="#B6BECA" stroke-width="7.95156"/>
<path d="M730.135 177.756C788.406 198.782 807.782 155.876 810.187 131.794L810.439 -46.2234L781.111 -46.265L781.02 17.6119L709.922 17.5111L709.874 51.0203L780.973 51.1211L780.862 128.868C780.86 130.769 780.465 132.669 779.587 134.356C764.501 163.346 740.55 144.93 730.201 131.681C723.997 119.459 717.209 101.295 716.927 90.8225L688.488 90.7822C689.128 141.047 716.519 169.708 730.135 177.756Z" stroke="#B6BECA" stroke-width="7.95156"/>
<path d="M675.274 7.34361C617.003 -13.6823 597.627 29.2239 595.223 53.3053L594.97 231.323L624.298 231.365L624.389 167.488L695.488 167.589L695.535 134.079L624.436 133.978L624.547 56.2316C624.549 54.3307 624.944 52.4303 625.822 50.7441C640.908 21.7533 664.859 40.1691 675.209 53.4188C681.412 65.6403 688.2 83.805 688.482 94.2771L716.921 94.3174C716.282 44.0526 688.89 15.3912 675.274 7.34361Z" stroke="#B6BECA" stroke-width="7.95156"/>
<path d="M510.616 177.444C568.887 198.47 588.263 155.564 590.667 131.482L590.92 -46.5354L561.591 -46.577L561.501 17.2999L490.402 17.1991L490.355 50.7083L561.453 50.8091L561.343 128.556C561.34 130.457 560.945 132.357 560.068 134.044C544.982 163.034 521.031 144.618 510.681 131.369C504.477 119.147 497.689 100.983 497.408 90.5105L468.968 90.4702C469.608 140.735 497 169.396 510.616 177.444Z" stroke="#B6BECA" stroke-width="7.95156"/>
<path d="M455.754 7.0316C397.483 -13.9944 378.107 28.9119 375.703 52.9933L375.451 231.011L404.779 231.053L404.869 167.176L475.968 167.277L476.016 133.767L404.917 133.666L405.027 55.9196C405.03 54.0187 405.425 52.1183 406.302 50.4321C421.388 21.4413 445.339 39.8571 455.689 53.1067C461.893 65.3283 468.681 83.493 468.962 93.9651L497.402 94.0054C496.762 43.7406 469.37 15.0792 455.754 7.0316Z" stroke="#B6BECA" stroke-width="7.95156"/>
<path d="M291.099 177.133C349.37 198.159 368.746 155.253 371.15 131.171L371.402 -46.8464L342.074 -46.888L341.984 16.9889L270.885 16.888L270.837 50.3972L341.936 50.4981L341.826 128.245C341.823 130.146 341.428 132.046 340.551 133.732C325.465 162.723 301.514 144.307 291.164 131.058C284.96 118.836 278.172 100.672 277.891 90.1995L249.451 90.1591C250.091 140.424 277.483 169.085 291.099 177.133Z" stroke="#B6BECA" stroke-width="7.95156"/>
<path d="M236.24 6.72008C177.969 -14.3059 158.593 28.6004 156.189 52.6818L155.936 230.699L185.265 230.741L185.355 166.864L256.454 166.965L256.501 133.456L185.403 133.355L185.513 55.6081C185.516 53.7072 185.911 51.8068 186.788 50.1205C201.874 21.1298 225.825 39.5456 236.175 52.7952C242.379 65.0168 249.167 83.1814 249.448 93.6536L277.888 93.6939C277.248 43.4291 249.856 14.7677 236.24 6.72008Z" stroke="#B6BECA" stroke-width="7.95156"/>
<path d="M71.5815 176.821C129.853 197.847 149.229 154.941 151.633 130.86L151.885 -47.1579L122.557 -47.1995L122.467 16.6774L51.3679 16.5765L51.3203 50.0857L122.419 50.1866L122.309 127.933C122.306 129.834 121.911 131.735 121.034 133.421C105.948 162.412 81.9965 143.996 71.6468 130.746C65.443 118.525 58.6551 100.36 58.3737 89.888L29.9343 89.8476C30.5739 140.112 57.9656 168.774 71.5815 176.821Z" stroke="#B6BECA" stroke-width="7.95156"/>
<path d="M16.7223 6.40855C-41.549 -14.6174 -60.925 28.2889 -63.3291 52.3702L-63.5817 230.388L-34.2535 230.43L-34.1628 166.553L36.9359 166.653L36.9834 133.144L-34.1153 133.043L-34.005 55.2965C-34.0023 53.3957 -33.6073 51.4952 -32.7298 49.809C-17.6438 20.8183 6.30717 39.2341 16.6569 52.4837C22.8607 64.7052 29.6486 82.8699 29.93 93.342L58.3694 93.3824C57.7298 43.1176 30.3381 14.4562 16.7223 6.40855Z" stroke="#B6BECA" stroke-width="7.95156"/>
</g>
<g opacity="0.48">
<path d="M265.227 267.846L248.419 318.393C99.5669 287.296 118.571 361.245 112.856 397.895L53.7065 411.469C54.3154 282.876 88.8142 228.742 265.227 267.846Z" fill="#FDC300"/>
<path d="M232.424 305.853C94.5712 285.012 114.344 371.492 113.451 397.798L55.689 411.593C52.1877 334.175 96.2523 232.486 242.556 253.536L232.424 305.853Z" fill="#B38513"/>
<path d="M212.869 293.518C95.7824 284.56 110.172 372.334 113.368 399.234L53.8869 410.491C46.6429 321.463 81.028 241.679 208.484 238.506L212.869 293.518Z" fill="#63C0F2"/>
<path d="M183.189 283.493C102.404 307.669 105.823 373.085 113.367 397.44L57.3239 413.539C57.906 332.406 42.8907 294.777 167.65 234.679L183.189 283.493Z" fill="#009DDD"/>
<path d="M149.602 287.821C96.6082 338.21 105.931 377.36 113.372 398.326L57.2091 409.658C48.2003 341.526 71.5953 273.589 132.357 243.814L149.602 287.821Z" fill="#E6027D"/>
<path d="M124.377 303.552C98.2969 361.109 105.363 374.365 115.417 395.207L60.1081 414.342C44.7671 366.796 62.9209 294.586 96.9689 261.973L124.377 303.552Z" fill="#961C81"/>
<path d="M74.1065 285.803L109.845 320.094C99.8228 368.839 107.941 385.915 111.948 400.033L58.6655 411.654C50.023 375.012 36.2179 356.107 74.1065 285.803Z" fill="#8659FB"/>
<path d="M61.5556 311.285L104.933 330.938L104.139 363.754L106.323 392.721L51.4201 397.761L48.5824 379.91C47.883 375.511 47.6305 371.093 47.8279 366.711C48.6599 348.235 52.9753 330.221 60.6016 313.391L61.5556 311.285Z" fill="#5F3EB5"/>
</g>
</g>
<defs>
<radialGradient id="paint0_radial_1628_6993" cx="0" cy="0" r="1" gradientTransform="matrix(583 7.64471e-06 0.289792 168.458 597 -1.22535e-05)" gradientUnits="userSpaceOnUse">
<stop stop-color="#4A8EF3"/>
<stop offset="0.995192" stop-color="#0561E8"/>
</radialGradient>
<clipPath id="clip0_1628_6993">
<rect width="1194" height="345" rx="12" fill="white"/>
</clipPath>
</defs>
</svg>
