<svg width="60" height="60" viewBox="0 0 60 60" fill="none" xmlns="http://www.w3.org/2000/svg">
<rect x="0.416667" y="0.416667" width="59.1667" height="59.1667" rx="11.25" fill="url(#paint0_radial_1565_6781)"/>
<rect x="0.416667" y="0.416667" width="59.1667" height="59.1667" rx="11.25" stroke="#FFAA00" stroke-width="0.833333"/>
<path d="M30 16.3662C36.9037 16.3662 42.5 21.9625 42.5 28.8662C42.5 35.77 36.9037 41.3662 30 41.3662C23.0963 41.3662 17.5 35.77 17.5 28.8662C17.5 21.9625 23.0963 16.3662 30 16.3662ZM30 18.8662C27.3478 18.8662 24.8043 19.9198 22.9289 21.7951C21.0536 23.6705 20 26.214 20 28.8662C20 31.5184 21.0536 34.0619 22.9289 35.9373C24.8043 37.8126 27.3478 38.8662 30 38.8662C32.6522 38.8662 35.1957 37.8126 37.0711 35.9373C38.9464 34.0619 40 31.5184 40 28.8662C40 26.214 38.9464 23.6705 37.0711 21.7951C35.1957 19.9198 32.6522 18.8662 30 18.8662ZM30 21.3662C30.3062 21.3663 30.6017 21.4787 30.8305 21.6821C31.0593 21.8856 31.2054 22.1659 31.2413 22.47L31.25 22.6162V28.3487L34.6337 31.7325C34.8579 31.9574 34.9881 32.2593 34.9978 32.5767C35.0075 32.8941 34.896 33.2034 34.6859 33.4416C34.4759 33.6798 34.1831 33.8291 33.8669 33.8592C33.5508 33.8893 33.235 33.798 32.9838 33.6037L32.8663 33.5L29.1163 29.75C28.922 29.5555 28.7972 29.3025 28.7612 29.03L28.75 28.8662V22.6162C28.75 22.2847 28.8817 21.9667 29.1161 21.7323C29.3505 21.4979 29.6685 21.3662 30 21.3662Z" fill="white"/>
<defs>
<radialGradient id="paint0_radial_1565_6781" cx="0" cy="0" r="1" gradientTransform="matrix(28.6667 -1.07143 0.103704 28.6667 30 5.35714)" gradientUnits="userSpaceOnUse">
<stop stop-color="#FFD176"/>
<stop offset="1" stop-color="#FFAA00"/>
</radialGradient>
</defs>
</svg>
