<svg width="1022" height="341" viewBox="0 0 1022 341" fill="none" xmlns="http://www.w3.org/2000/svg">
<g clip-path="url(#clip0_772_4525)">
<g filter="url(#filter0_dddd_772_4525)">
<g clip-path="url(#clip1_772_4525)">
<rect x="973.096" y="12" width="50" height="50" rx="11.6667" transform="rotate(14 973.096 12)" fill="url(#paint0_radial_772_4525)"/>
<g filter="url(#filter1_d_772_4525)">
<path d="M990.277 35.2926C989.792 34.4845 989.993 33.6759 990.6 33.3117L995.853 30.1554C996.459 29.7913 997.267 29.9929 997.793 30.6393L997.915 30.8413C998.279 31.4474 998.077 32.256 997.431 32.7819L992.218 35.7765C991.612 36.1407 990.642 35.8988 990.277 35.2926ZM997.076 46.6067C996.59 45.7985 996.792 44.9899 997.438 44.464L1002.69 41.3078C1003.3 40.9436 1004.11 41.1452 1004.63 41.7916L1004.75 41.9936C1005.12 42.5997 1004.92 43.4083 1004.27 43.9342L999.016 47.0905C998.248 47.4144 997.44 47.2128 997.076 46.6067ZM994.648 42.5659L992.584 39.1313C992.098 38.3232 992.34 37.3529 993.148 36.8673L997.795 34.0752C998.603 33.5896 999.574 33.8315 1000.06 34.6397L1002.12 38.0743C1002.61 38.8825 1002.37 39.8527 1001.56 40.3383L996.912 43.1304C996.104 43.616 995.133 43.3741 994.648 42.5659ZM982.324 50.6583C983.536 49.9299 991.051 43.215 991.738 43.9017C992.304 44.3864 993.557 43.4964 993.557 43.4964L991.25 39.6577C991.25 39.6577 989.876 40.3457 990.039 41.0732C990.322 42.0028 980.865 45.4851 979.653 46.2135C979.653 46.2135 974.238 48.6422 975.938 51.4708C977.637 54.2993 982.324 50.6583 982.324 50.6583Z" fill="#FAFAFA"/>
</g>
</g>
<rect x="973.4" y="12.5051" width="49.1667" height="49.1667" rx="11.25" transform="rotate(14 973.4 12.5051)" stroke="#FFAA00" stroke-width="0.833333"/>
</g>
<g filter="url(#filter2_dddd_772_4525)">
<rect x="124.983" y="277.481" width="50" height="50" rx="11.6667" transform="rotate(18.0626 124.983 277.481)" fill="url(#paint1_radial_772_4525)"/>
<rect x="125.25" y="278.006" width="49.1667" height="49.1667" rx="11.25" transform="rotate(18.0626 125.25 278.006)" stroke="#63C0F2" stroke-width="0.833333"/>
<g filter="url(#filter3_d_772_4525)">
<path d="M131.378 314.315L136.195 299.545C136.371 299.004 136.755 298.556 137.261 298.299C137.768 298.041 138.356 297.996 138.897 298.172L150.509 301.959C150.671 302.012 150.806 302.127 150.883 302.279C150.96 302.431 150.974 302.607 150.921 302.769L145.141 320.493L132.408 316.341M139.605 302.911L145.717 304.904M134.401 310.229L147.134 314.382M133.404 313.285L146.137 317.438" stroke="#FAFAFA" stroke-width="1.60714" stroke-linecap="round"/>
<path d="M134.401 310.229C133.382 309.897 132.65 310.415 132.375 311.259C132.1 312.102 132.386 312.953 133.404 313.285C132.386 312.953 131.653 313.471 131.378 314.315C131.103 315.158 131.389 316.009 132.408 316.341" stroke="#FAFAFA" stroke-width="1.60714" stroke-linecap="round" stroke-linejoin="round"/>
</g>
</g>
<g filter="url(#filter4_dddd_772_4525)">
<rect y="12.2539" width="50" height="50" rx="11.6667" transform="rotate(-14.1866 0 12.2539)" fill="url(#paint2_radial_772_4525)"/>
<rect x="0.506076" y="12.5557" width="49.1667" height="49.1667" rx="11.25" transform="rotate(-14.1866 0.506076 12.5557)" stroke="#9747FF" stroke-width="0.833333"/>
<g filter="url(#filter5_d_772_4525)">
<path d="M39.9633 26.6486L35.6956 20.8511L37.3115 20.4426L36.903 18.8268L28.8238 20.8691L28.4154 19.2533L26.7995 19.6617L27.208 21.2776L19.1288 23.3199L19.5373 24.9358L21.1531 24.5273L20.1693 31.6524L19.5553 31.8076L19.9638 33.4234L20.2061 33.3621C20.6616 34.1031 21.3503 34.6717 22.1628 34.982C22.969 35.3038 23.8563 35.3626 24.6979 35.1498C25.5395 34.9371 26.2923 34.4637 26.8487 33.7974C27.416 33.1352 27.7554 32.3081 27.8167 31.4383L28.043 31.3811L27.6345 29.7652L26.9074 29.9491L22.575 24.1678L27.6165 22.8934L30.8842 35.8201L27.6525 36.6371L27.0959 37.0872L24.8894 41.9599L25.8505 43.1094L40.393 39.4332L40.6923 37.9651L36.4354 34.7263L35.7317 34.5947L32.5 35.4117L29.2323 22.485L34.2899 21.2065L33.2253 28.3519L32.482 28.5398L32.8905 30.1557L33.1328 30.0944C33.5995 30.8282 34.2857 31.396 35.0937 31.7173C35.9018 32.0385 36.7905 32.0967 37.6336 31.8836C38.4766 31.6705 39.231 31.1969 39.7893 30.5303C40.3477 29.8636 40.6815 29.0379 40.7434 28.1705L40.9697 28.1133L40.5612 26.4975L39.9633 26.6486ZM25.3751 32.9322C25.0694 33.2207 24.696 33.4274 24.2893 33.5333C23.8863 33.633 23.4645 33.6271 23.0644 33.5163C22.6592 33.409 22.2876 33.2014 21.9836 32.9128L26.0232 31.8917C25.8968 32.2869 25.6741 32.6445 25.3751 32.9322ZM25.1623 30.3902L21.9306 31.2071L22.5661 26.9207L25.1623 30.3902ZM35.7524 36.3086L38.3687 38.2259L27.0578 41.0851L28.4488 38.1549L35.7524 36.3086ZM35.6141 23.6566L38.2102 27.1262L34.9786 27.9431L35.6141 23.6566ZM38.31 29.6968C38.0089 29.9915 37.6337 30.1992 37.2242 30.2979C36.8222 30.4056 36.3982 30.3998 35.9993 30.2809C35.5893 30.1622 35.2152 29.9437 34.9103 29.6451L38.9499 28.6239C38.8404 29.0341 38.6188 29.4056 38.31 29.6968Z" fill="#FAFAFA"/>
</g>
</g>
<g filter="url(#filter6_dddd_772_4525)">
<rect x="865.392" y="261.16" width="50" height="50" rx="11.6667" transform="rotate(-18.3822 865.392 261.16)" fill="url(#paint3_radial_772_4525)"/>
<rect x="865.918" y="261.424" width="49.1667" height="49.1667" rx="11.25" transform="rotate(-18.3822 865.918 261.424)" stroke="#E6027D" stroke-width="0.833333"/>
<g filter="url(#filter7_d_772_4525)">
<path d="M894.547 267.247C894.291 267.162 894.015 267.162 893.759 267.247C893.503 267.332 893.282 267.497 893.127 267.719L886.807 276.787C886.272 277.554 887.023 278.56 887.911 278.265L905.039 272.573C905.927 272.278 905.926 271.023 905.039 270.728L894.547 267.247ZM895.511 272.519C895.231 272.612 894.926 272.59 894.663 272.458C894.399 272.326 894.199 272.095 894.106 271.815C894.013 271.535 894.035 271.23 894.167 270.967C894.299 270.703 894.53 270.503 894.81 270.41C895.09 270.317 895.395 270.339 895.658 270.471C895.922 270.603 896.122 270.835 896.215 271.114C896.308 271.394 896.286 271.699 896.154 271.963C896.022 272.226 895.79 272.426 895.511 272.519ZM890.27 288.458C890.149 288.095 890.101 287.711 890.128 287.329C890.156 286.947 890.258 286.574 890.43 286.231C890.601 285.889 890.839 285.583 891.128 285.333C891.418 285.082 891.754 284.891 892.118 284.77L905.561 280.302C907.09 279.794 908.741 280.622 909.249 282.15L909.512 282.941C909.633 283.305 909.435 283.698 909.072 283.819L891.41 289.688C891.235 289.746 891.045 289.732 890.88 289.65C890.716 289.567 890.591 289.423 890.532 289.248L890.27 288.458ZM893.217 283.234L891.108 283.934L889.444 278.926L891.553 278.225L893.217 283.234ZM893.661 277.524L895.326 282.533L897.435 281.832L895.77 276.824L893.661 277.524ZM897.879 276.123L899.544 281.131L901.652 280.431L899.988 275.422L897.879 276.123ZM902.097 274.721L903.761 279.73L905.87 279.029L904.206 274.02L902.097 274.721Z" fill="#FAFAFA"/>
</g>
</g>
</g>
<defs>
<filter id="filter0_dddd_772_4525" x="842.667" y="-9.66667" width="297.277" height="497.277" filterUnits="userSpaceOnUse" color-interpolation-filters="sRGB">
<feFlood flood-opacity="0" result="BackgroundImageFix"/>
<feColorMatrix in="SourceAlpha" type="matrix" values="0 0 0 0 0 0 0 0 0 0 0 0 0 0 0 0 0 0 127 0" result="hardAlpha"/>
<feOffset dy="18.3333"/>
<feGaussianBlur stdDeviation="20"/>
<feColorMatrix type="matrix" values="0 0 0 0 0.0196078 0 0 0 0 0.380392 0 0 0 0 0.909804 0 0 0 0.1 0"/>
<feBlend mode="normal" in2="BackgroundImageFix" result="effect1_dropShadow_772_4525"/>
<feColorMatrix in="SourceAlpha" type="matrix" values="0 0 0 0 0 0 0 0 0 0 0 0 0 0 0 0 0 0 127 0" result="hardAlpha"/>
<feOffset dy="75"/>
<feGaussianBlur stdDeviation="37.5"/>
<feColorMatrix type="matrix" values="0 0 0 0 0.0196078 0 0 0 0 0.380392 0 0 0 0 0.909804 0 0 0 0.09 0"/>
<feBlend mode="normal" in2="effect1_dropShadow_772_4525" result="effect2_dropShadow_772_4525"/>
<feColorMatrix in="SourceAlpha" type="matrix" values="0 0 0 0 0 0 0 0 0 0 0 0 0 0 0 0 0 0 127 0" result="hardAlpha"/>
<feOffset dy="166.667"/>
<feGaussianBlur stdDeviation="50"/>
<feColorMatrix type="matrix" values="0 0 0 0 0.0196078 0 0 0 0 0.380392 0 0 0 0 0.909804 0 0 0 0.05 0"/>
<feBlend mode="normal" in2="effect2_dropShadow_772_4525" result="effect3_dropShadow_772_4525"/>
<feColorMatrix in="SourceAlpha" type="matrix" values="0 0 0 0 0 0 0 0 0 0 0 0 0 0 0 0 0 0 127 0" result="hardAlpha"/>
<feOffset dy="296.667"/>
<feGaussianBlur stdDeviation="59.1667"/>
<feColorMatrix type="matrix" values="0 0 0 0 0.0196078 0 0 0 0 0.380392 0 0 0 0 0.909804 0 0 0 0.01 0"/>
<feBlend mode="normal" in2="effect3_dropShadow_772_4525" result="effect4_dropShadow_772_4525"/>
<feBlend mode="normal" in="SourceGraphic" in2="effect4_dropShadow_772_4525" result="shape"/>
</filter>
<filter id="filter1_d_772_4525" x="968.941" y="29.9753" width="42.659" height="35.9051" filterUnits="userSpaceOnUse" color-interpolation-filters="sRGB">
<feFlood flood-opacity="0" result="BackgroundImageFix"/>
<feColorMatrix in="SourceAlpha" type="matrix" values="0 0 0 0 0 0 0 0 0 0 0 0 0 0 0 0 0 0 127 0" result="hardAlpha"/>
<feOffset dy="6.66667"/>
<feGaussianBlur stdDeviation="3.33333"/>
<feComposite in2="hardAlpha" operator="out"/>
<feColorMatrix type="matrix" values="0 0 0 0 0 0 0 0 0 0 0 0 0 0 0 0 0 0 0.15 0"/>
<feBlend mode="normal" in2="BackgroundImageFix" result="effect1_dropShadow_772_4525"/>
<feBlend mode="normal" in="SourceGraphic" in2="effect1_dropShadow_772_4525" result="shape"/>
</filter>
<filter id="filter2_dddd_772_4525" x="-8.85286" y="255.814" width="299.706" height="499.705" filterUnits="userSpaceOnUse" color-interpolation-filters="sRGB">
<feFlood flood-opacity="0" result="BackgroundImageFix"/>
<feColorMatrix in="SourceAlpha" type="matrix" values="0 0 0 0 0 0 0 0 0 0 0 0 0 0 0 0 0 0 127 0" result="hardAlpha"/>
<feOffset dy="18.3333"/>
<feGaussianBlur stdDeviation="20"/>
<feColorMatrix type="matrix" values="0 0 0 0 0.0196078 0 0 0 0 0.380392 0 0 0 0 0.909804 0 0 0 0.1 0"/>
<feBlend mode="normal" in2="BackgroundImageFix" result="effect1_dropShadow_772_4525"/>
<feColorMatrix in="SourceAlpha" type="matrix" values="0 0 0 0 0 0 0 0 0 0 0 0 0 0 0 0 0 0 127 0" result="hardAlpha"/>
<feOffset dy="75"/>
<feGaussianBlur stdDeviation="37.5"/>
<feColorMatrix type="matrix" values="0 0 0 0 0.0196078 0 0 0 0 0.380392 0 0 0 0 0.909804 0 0 0 0.09 0"/>
<feBlend mode="normal" in2="effect1_dropShadow_772_4525" result="effect2_dropShadow_772_4525"/>
<feColorMatrix in="SourceAlpha" type="matrix" values="0 0 0 0 0 0 0 0 0 0 0 0 0 0 0 0 0 0 127 0" result="hardAlpha"/>
<feOffset dy="166.667"/>
<feGaussianBlur stdDeviation="50"/>
<feColorMatrix type="matrix" values="0 0 0 0 0.0196078 0 0 0 0 0.380392 0 0 0 0 0.909804 0 0 0 0.05 0"/>
<feBlend mode="normal" in2="effect2_dropShadow_772_4525" result="effect3_dropShadow_772_4525"/>
<feColorMatrix in="SourceAlpha" type="matrix" values="0 0 0 0 0 0 0 0 0 0 0 0 0 0 0 0 0 0 127 0" result="hardAlpha"/>
<feOffset dy="296.667"/>
<feGaussianBlur stdDeviation="59.1667"/>
<feColorMatrix type="matrix" values="0 0 0 0 0.0196078 0 0 0 0 0.380392 0 0 0 0 0.909804 0 0 0 0.01 0"/>
<feBlend mode="normal" in2="effect3_dropShadow_772_4525" result="effect4_dropShadow_772_4525"/>
<feBlend mode="normal" in="SourceGraphic" in2="effect4_dropShadow_772_4525" result="shape"/>
</filter>
<filter id="filter3_d_772_4525" x="123.809" y="297.262" width="34.6131" height="37.5775" filterUnits="userSpaceOnUse" color-interpolation-filters="sRGB">
<feFlood flood-opacity="0" result="BackgroundImageFix"/>
<feColorMatrix in="SourceAlpha" type="matrix" values="0 0 0 0 0 0 0 0 0 0 0 0 0 0 0 0 0 0 127 0" result="hardAlpha"/>
<feOffset dy="6.66667"/>
<feGaussianBlur stdDeviation="3.33333"/>
<feComposite in2="hardAlpha" operator="out"/>
<feColorMatrix type="matrix" values="0 0 0 0 0 0 0 0 0 0 0 0 0 0 0 0 0 0 0.15 0"/>
<feBlend mode="normal" in2="BackgroundImageFix" result="effect1_dropShadow_772_4525"/>
<feBlend mode="normal" in="SourceGraphic" in2="effect1_dropShadow_772_4525" result="shape"/>
</filter>
<filter id="filter4_dddd_772_4525" x="-118.333" y="-21.6667" width="297.396" height="497.396" filterUnits="userSpaceOnUse" color-interpolation-filters="sRGB">
<feFlood flood-opacity="0" result="BackgroundImageFix"/>
<feColorMatrix in="SourceAlpha" type="matrix" values="0 0 0 0 0 0 0 0 0 0 0 0 0 0 0 0 0 0 127 0" result="hardAlpha"/>
<feOffset dy="18.3333"/>
<feGaussianBlur stdDeviation="20"/>
<feColorMatrix type="matrix" values="0 0 0 0 0.0196078 0 0 0 0 0.380392 0 0 0 0 0.909804 0 0 0 0.1 0"/>
<feBlend mode="normal" in2="BackgroundImageFix" result="effect1_dropShadow_772_4525"/>
<feColorMatrix in="SourceAlpha" type="matrix" values="0 0 0 0 0 0 0 0 0 0 0 0 0 0 0 0 0 0 127 0" result="hardAlpha"/>
<feOffset dy="75"/>
<feGaussianBlur stdDeviation="37.5"/>
<feColorMatrix type="matrix" values="0 0 0 0 0.0196078 0 0 0 0 0.380392 0 0 0 0 0.909804 0 0 0 0.09 0"/>
<feBlend mode="normal" in2="effect1_dropShadow_772_4525" result="effect2_dropShadow_772_4525"/>
<feColorMatrix in="SourceAlpha" type="matrix" values="0 0 0 0 0 0 0 0 0 0 0 0 0 0 0 0 0 0 127 0" result="hardAlpha"/>
<feOffset dy="166.667"/>
<feGaussianBlur stdDeviation="50"/>
<feColorMatrix type="matrix" values="0 0 0 0 0.0196078 0 0 0 0 0.380392 0 0 0 0 0.909804 0 0 0 0.05 0"/>
<feBlend mode="normal" in2="effect2_dropShadow_772_4525" result="effect3_dropShadow_772_4525"/>
<feColorMatrix in="SourceAlpha" type="matrix" values="0 0 0 0 0 0 0 0 0 0 0 0 0 0 0 0 0 0 127 0" result="hardAlpha"/>
<feOffset dy="296.667"/>
<feGaussianBlur stdDeviation="59.1667"/>
<feColorMatrix type="matrix" values="0 0 0 0 0.0196078 0 0 0 0 0.380392 0 0 0 0 0.909804 0 0 0 0.01 0"/>
<feBlend mode="normal" in2="effect3_dropShadow_772_4525" result="effect4_dropShadow_772_4525"/>
<feBlend mode="normal" in="SourceGraphic" in2="effect4_dropShadow_772_4525" result="shape"/>
</filter>
<filter id="filter5_d_772_4525" x="12.4622" y="18.8267" width="35.1742" height="37.616" filterUnits="userSpaceOnUse" color-interpolation-filters="sRGB">
<feFlood flood-opacity="0" result="BackgroundImageFix"/>
<feColorMatrix in="SourceAlpha" type="matrix" values="0 0 0 0 0 0 0 0 0 0 0 0 0 0 0 0 0 0 127 0" result="hardAlpha"/>
<feOffset dy="6.66667"/>
<feGaussianBlur stdDeviation="3.33333"/>
<feComposite in2="hardAlpha" operator="out"/>
<feColorMatrix type="matrix" values="0 0 0 0 0 0 0 0 0 0 0 0 0 0 0 0 0 0 0.15 0"/>
<feBlend mode="normal" in2="BackgroundImageFix" result="effect1_dropShadow_772_4525"/>
<feBlend mode="normal" in="SourceGraphic" in2="effect1_dropShadow_772_4525" result="shape"/>
</filter>
<filter id="filter6_dddd_772_4525" x="747.058" y="223.725" width="299.883" height="499.883" filterUnits="userSpaceOnUse" color-interpolation-filters="sRGB">
<feFlood flood-opacity="0" result="BackgroundImageFix"/>
<feColorMatrix in="SourceAlpha" type="matrix" values="0 0 0 0 0 0 0 0 0 0 0 0 0 0 0 0 0 0 127 0" result="hardAlpha"/>
<feOffset dy="18.3333"/>
<feGaussianBlur stdDeviation="20"/>
<feColorMatrix type="matrix" values="0 0 0 0 0.0196078 0 0 0 0 0.380392 0 0 0 0 0.909804 0 0 0 0.1 0"/>
<feBlend mode="normal" in2="BackgroundImageFix" result="effect1_dropShadow_772_4525"/>
<feColorMatrix in="SourceAlpha" type="matrix" values="0 0 0 0 0 0 0 0 0 0 0 0 0 0 0 0 0 0 127 0" result="hardAlpha"/>
<feOffset dy="75"/>
<feGaussianBlur stdDeviation="37.5"/>
<feColorMatrix type="matrix" values="0 0 0 0 0.0196078 0 0 0 0 0.380392 0 0 0 0 0.909804 0 0 0 0.09 0"/>
<feBlend mode="normal" in2="effect1_dropShadow_772_4525" result="effect2_dropShadow_772_4525"/>
<feColorMatrix in="SourceAlpha" type="matrix" values="0 0 0 0 0 0 0 0 0 0 0 0 0 0 0 0 0 0 127 0" result="hardAlpha"/>
<feOffset dy="166.667"/>
<feGaussianBlur stdDeviation="50"/>
<feColorMatrix type="matrix" values="0 0 0 0 0.0196078 0 0 0 0 0.380392 0 0 0 0 0.909804 0 0 0 0.05 0"/>
<feBlend mode="normal" in2="effect2_dropShadow_772_4525" result="effect3_dropShadow_772_4525"/>
<feColorMatrix in="SourceAlpha" type="matrix" values="0 0 0 0 0 0 0 0 0 0 0 0 0 0 0 0 0 0 127 0" result="hardAlpha"/>
<feOffset dy="296.667"/>
<feGaussianBlur stdDeviation="59.1667"/>
<feColorMatrix type="matrix" values="0 0 0 0 0.0196078 0 0 0 0 0.380392 0 0 0 0 0.909804 0 0 0 0.01 0"/>
<feBlend mode="normal" in2="effect3_dropShadow_772_4525" result="effect4_dropShadow_772_4525"/>
<feBlend mode="normal" in="SourceGraphic" in2="effect4_dropShadow_772_4525" result="shape"/>
</filter>
<filter id="filter7_d_772_4525" x="879.961" y="267.183" width="36.2528" height="35.8731" filterUnits="userSpaceOnUse" color-interpolation-filters="sRGB">
<feFlood flood-opacity="0" result="BackgroundImageFix"/>
<feColorMatrix in="SourceAlpha" type="matrix" values="0 0 0 0 0 0 0 0 0 0 0 0 0 0 0 0 0 0 127 0" result="hardAlpha"/>
<feOffset dy="6.66667"/>
<feGaussianBlur stdDeviation="3.33333"/>
<feComposite in2="hardAlpha" operator="out"/>
<feColorMatrix type="matrix" values="0 0 0 0 0 0 0 0 0 0 0 0 0 0 0 0 0 0 0.15 0"/>
<feBlend mode="normal" in2="BackgroundImageFix" result="effect1_dropShadow_772_4525"/>
<feBlend mode="normal" in="SourceGraphic" in2="effect1_dropShadow_772_4525" result="shape"/>
</filter>
<radialGradient id="paint0_radial_772_4525" cx="0" cy="0" r="1" gradientTransform="matrix(23.8889 -0.892857 0.0864197 23.8889 998.096 16.4643)" gradientUnits="userSpaceOnUse">
<stop stop-color="#FFD176"/>
<stop offset="1" stop-color="#FFAA00"/>
</radialGradient>
<radialGradient id="paint1_radial_772_4525" cx="0" cy="0" r="1" gradientTransform="matrix(25 -9.26108e-08 -0.842769 24.9685 149.983 277.481)" gradientUnits="userSpaceOnUse">
<stop stop-color="#81E0FF"/>
<stop offset="1" stop-color="#07BFFB"/>
</radialGradient>
<radialGradient id="paint2_radial_772_4525" cx="0" cy="0" r="1" gradientTransform="matrix(23.8889 -0.892857 0.0864197 23.8889 25 16.7182)" gradientUnits="userSpaceOnUse">
<stop stop-color="#C69AFF"/>
<stop offset="1" stop-color="#9747FF"/>
</radialGradient>
<radialGradient id="paint3_radial_772_4525" cx="0" cy="0" r="1" gradientTransform="matrix(25 -9.26108e-08 -0.842769 24.9685 890.392 261.16)" gradientUnits="userSpaceOnUse">
<stop stop-color="#FF96CE"/>
<stop offset="1" stop-color="#E6027D"/>
</radialGradient>
<clipPath id="clip0_772_4525">
<rect width="1021.61" height="340.52" fill="white"/>
</clipPath>
<clipPath id="clip1_772_4525">
<rect x="973.096" y="12" width="50" height="50" rx="11.6667" transform="rotate(14 973.096 12)" fill="white"/>
</clipPath>
</defs>
</svg>
