<svg width="288" height="145" viewBox="0 0 288 145" fill="none" xmlns="http://www.w3.org/2000/svg">
<path d="M278.227 63.9944L261.42 114.541C112.568 83.4444 131.572 157.393 125.857 194.043L66.7072 207.617C67.316 79.0248 101.815 24.8908 278.227 63.9944Z" fill="#FDC300"/>
<path d="M245.426 102.003C107.574 81.1624 127.347 167.643 126.453 193.949L68.6915 207.744C65.1902 130.325 109.255 28.6366 255.558 49.6863L245.426 102.003Z" fill="#B38513"/>
<path d="M225.867 89.6684C108.781 80.7105 123.171 168.485 126.367 195.385L66.8855 206.641C59.6416 117.613 94.0266 37.8297 221.482 34.6562L225.867 89.6684Z" fill="#63C0F2"/>
<path d="M196.191 79.6442C115.406 103.821 118.825 169.237 126.369 193.592L70.326 209.69C70.9081 128.557 55.8927 90.9289 180.652 30.8302L196.191 79.6442Z" fill="#009DDD"/>
<path d="M162.598 83.9709C109.604 134.36 118.927 173.51 126.369 194.476L70.2054 205.808C61.1965 137.676 84.5916 69.7386 145.354 39.964L162.598 83.9709Z" fill="#E6027D"/>
<path d="M137.377 99.6991C111.297 157.256 118.363 170.512 128.417 191.354L73.1083 210.489C57.7672 162.943 75.9211 90.7331 109.969 58.1202L137.377 99.6991Z" fill="#961C81"/>
<path d="M87.1096 81.9525L122.848 116.244C112.826 164.989 120.944 182.064 124.951 196.183L71.6685 207.804C63.026 171.162 49.221 152.256 87.1096 81.9525Z" fill="#8659FB"/>
<path d="M74.5572 107.437L117.935 127.09L117.14 159.906L119.324 188.873L64.4217 193.913L61.584 176.062C60.8846 171.662 60.6321 167.245 60.8295 162.862C61.6615 144.386 65.9769 126.373 73.6032 109.542L74.5572 107.437Z" fill="#5F3EB5"/>
</svg>
